<?xml version="1.0" encoding="utf-8"?>
<!-- Generator: Adobe Illustrator 25.4.1, SVG Export Plug-In . SVG Version: 6.00 Build 0)  -->
<svg version="1.1" id="Capa_1" xmlns="http://www.w3.org/2000/svg" xmlns:xlink="http://www.w3.org/1999/xlink" x="0px" y="0px"
	 viewBox="0 0 640 116.8379" style="enable-background:new 0 0 640 116.8379;" xml:space="preserve">
<style type="text/css">
	.st0{fill:#FF0000;}
	.st1{fill:#FFFFFF;}
</style>
<path class="st0" d="M23.9102,116.8379c0,0-7.5767-25.1714,2.3242-45.0742c7.3418-14.7583,12.5234-26.4766,29.6968-37.7456
	c17.1718-11.2686,17.5297-5.0103,17.5297,1.2514c0,6.2613,0.2891,81.5684,0.2891,81.5684h23.8608c0,0,0-74.41209,0-93.7319
	c0-19.31938-8.7656-28.26323-32.5576-19.13969C41.2617,13.0889,22.8359,31.8687,13.8916,47.6128
	C4.94922,63.3564,0.47705,77.9331,0.47705,95.1084c0,17.1685,1.85645,21.7295,1.85645,21.7295"/>
<path class="st0" d="M203.96339,34.9937C203.96339,7.81592,176,0,176,0h-65v117h20V75h23.5005L189,117h24.89839L177.7036,73.7886
	C180.76419,73.7886,203.96339,62.1714,203.96339,34.9937z M131,56V18h39c0,0,14.7188,4.3086,14.7188,19.3125
	c0,15.0029-13.188,18.6875-13.188,18.6875H131z"/>
<path d="M211.96339,58.625c0.0278-0.1519,0.0527-0.3042,0.0815-0.4551C212.0181,58.3218,211.98929,58.4727,211.96339,58.625z"/>
<g>
	<path class="st1" d="M605.81348,0H548.2168v116.8545h18.24408V78.0459h44.00488c0,0,29.6944-5.4443,29.6944-37.7383
		C640.16016,8.01318,605.81348,0,605.81348,0z M602.3291,61.6108h-36.22754V17.5386c0,0,23.34473,0,32.4707,0
		c9.12109,0,23.34375,3.2646,23.34375,22.0356C621.91602,58.3438,602.3291,61.6108,602.3291,61.6108z"/>
	<path class="st1" d="M375.3721,0.6084c-30.17001,0-54.625,26.124-54.625,58.3516c0,32.2275,24.45499,58.3515,54.625,58.3515
		C405.54001,117.3115,430,91.1875,430,58.96C430,26.7324,405.54001,0.6084,375.3721,0.6084z M375.37601,95.5088
		c-19.70901,0-35.6846-16.36279-35.6846-36.5488c0-20.188,15.97559-36.5523,35.6846-36.5523
		c19.70407,0,35.67969,16.3643,35.67969,36.5523C411.05569,79.146,395.08008,95.5088,375.37601,95.5088z"/>
	<path class="st1" d="M509.70309,73.7886c3.06058,0,26.2598-11.6172,26.2598-38.7949C535.96289,7.81592,508,0,508,0h-65v117h20V75
		h23.5l34.5,42h24.89838L509.70309,73.7886z M463,56V18h39c0,0,14.71881,4.3086,14.71881,19.3125
		c0,15.0029-13.18753,18.6875-13.18753,18.6875H463z"/>
	<path class="st1" d="M271.8945,95.8345c-19.8007,0-35.85451-16.5-35.85451-36.854c0-20.3545,16.0538-36.8545,35.85451-36.8545
		c10.03668,0,19.1055,4.2441,25.6138,11.0747L313,17.2471c0,0-10.6665-17.2222-45-17.2222s-54.10161,34.6397-54.10161,58.9102
		c0,24.2714,19.85161,57.9624,54.10161,57.9624s45-21.5772,45-21.5772L299.40768,82.606
		C292.83008,90.6899,282.94818,95.8345,271.8945,95.8345z"/>
</g>
</svg>
