<?xml version="1.0" encoding="utf-8"?>
<!-- Generator: Adobe Illustrator 25.4.1, SVG Export Plug-In . SVG Version: 6.00 Build 0)  -->
<svg version="1.1" id="Capa_1" xmlns="http://www.w3.org/2000/svg" xmlns:xlink="http://www.w3.org/1999/xlink" x="0px" y="0px"
	 viewBox="0 0 640 116.84" style="enable-background:new 0 0 640 116.84;" xml:space="preserve">
<style type="text/css">
	.st0{fill:#0A0001;}
	.st1{fill:#FF0000;}
</style>
<path d="M605.81,0h-57.6v116.85h18.24V78.05h44c0,0,29.69-5.44,29.69-37.74C640.16,8.01,605.81,0,605.81,0z M602.33,61.61H566.1
	V17.54c0,0,23.34,0,32.47,0c9.12,0,23.34,3.26,23.34,22.04C621.92,58.34,602.33,61.61,602.33,61.61z"/>
<path class="st0" d="M375.37,0.61c-30.17,0-54.62,26.12-54.62,58.35c0,32.23,24.45,58.35,54.62,58.35
	c30.17,0,54.63-26.12,54.63-58.35C430,26.73,405.54,0.61,375.37,0.61z M375.38,95.51c-19.71,0-35.68-16.36-35.68-36.55
	c0-20.19,15.98-36.55,35.68-36.55c19.7,0,35.68,16.36,35.68,36.55C411.06,79.15,395.08,95.51,375.38,95.51z"/>
<path class="st1" d="M23.91,116.84c0,0-7.58-25.17,2.32-45.07c7.34-14.76,12.52-26.48,29.7-37.75c17.17-11.27,17.53-5.01,17.53,1.25
	c0,6.26,0.29,81.57,0.29,81.57h23.86c0,0,0-74.41,0-93.73c0-19.32-8.77-28.26-32.56-19.14c-23.79,9.12-42.22,27.9-51.16,43.65
	C4.95,63.36,0.48,77.93,0.48,95.11c0,17.17,1.86,21.73,1.86,21.73"/>
<path class="st1" d="M203.96,34.99C203.96,7.82,176,0,176,0h-65v117h20V75h23.5l34.5,42h24.9L177.7,73.79
	C180.76,73.79,203.96,62.17,203.96,34.99z M131,56V18h39c0,0,14.72,4.31,14.72,19.31c0,15-13.19,18.69-13.19,18.69H131z"/>
<path d="M509.7,73.79c3.06,0,26.26-11.62,26.26-38.79C535.96,7.82,508,0,508,0h-65v117h20V75h23.5l34.5,42h24.9L509.7,73.79z
	 M463,56V18h39c0,0,14.72,4.31,14.72,19.31c0,15-13.19,18.69-13.19,18.69H463z"/>
<path d="M211.96,58.62c0.03-0.15,0.05-0.3,0.08-0.46C212.02,58.32,211.99,58.47,211.96,58.62z"/>
<path d="M271.89,95.83c-19.8,0-35.85-16.5-35.85-36.85c0-20.35,16.05-36.85,35.85-36.85c10.04,0,19.11,4.24,25.61,11.07L313,17.25
	c0,0-10.67-17.22-45-17.22s-54.1,34.64-54.1,58.91c0,24.27,19.85,57.96,54.1,57.96s45-21.58,45-21.58l-13.59-12.71
	C292.83,90.69,282.95,95.83,271.89,95.83z"/>
</svg>
